<svg width="42" height="38" viewBox="0 0 42 38" fill="none" xmlns="http://www.w3.org/2000/svg">
<path d="M20.9998 0.25C9.5415 0.25 0.166504 7.70833 0.166504 16.9167C0.218813 19.1306 0.759476 21.3057 1.74986 23.2864C2.74024 25.2672 4.1559 27.0048 5.89567 28.375C5.89567 29.625 5.02067 32.8958 0.166504 37.75C5.104 37.5208 9.83317 35.6667 13.6457 32.5417C16.0207 33.2292 18.5207 33.5833 20.9998 33.5833C32.4582 33.5833 41.8332 26.125 41.8332 16.9167C41.8332 7.70833 32.4582 0.25 20.9998 0.25ZM20.9998 29.4167C11.7915 29.4167 4.33317 23.8125 4.33317 16.9167C4.33317 10.0208 11.7915 4.41667 20.9998 4.41667C30.2082 4.41667 37.6665 10.0208 37.6665 16.9167C37.6665 23.8125 30.2082 29.4167 20.9998 29.4167ZM31.4165 19V14.8333H27.2498V19H31.4165ZM23.0832 19V14.8333H18.9165V19H23.0832ZM14.7498 19V14.8333H10.5832V19H14.7498Z" fill="#1D1C17"/>
</svg>
