<svg width="41" height="41" viewBox="0 0 41 41" fill="none" xmlns="http://www.w3.org/2000/svg">
<path d="M40.0234 20.5001C40.0235 17.2522 39.2133 14.0556 37.6662 11.1998C36.1191 8.344 33.884 5.91931 31.1633 4.14536C28.4426 2.37141 25.3224 1.30425 22.0852 1.04054C18.848 0.776829 15.5961 1.32491 12.6242 2.63513C9.65227 3.94535 7.05418 5.97632 5.06526 8.54404C3.07634 11.1118 1.75945 14.1351 1.23388 17.3402C0.7083 20.5454 0.990645 23.831 2.05534 26.8994C3.12003 29.9679 4.93342 32.7222 7.33125 34.913L7.56094 35.1044C11.1269 38.2715 15.7307 40.0207 20.5 40.0207C25.2694 40.0207 29.8731 38.2715 33.4391 35.1044L33.6688 34.913C35.6728 33.0852 37.2732 30.8592 38.3674 28.3773C39.4617 25.8955 40.0257 23.2125 40.0234 20.5001ZM3.27344 20.5001C3.26959 17.6878 3.95433 14.9173 5.26785 12.4306C6.58138 9.94395 8.48373 7.81665 10.8088 6.23453C13.1339 4.65241 15.8109 3.66358 18.6062 3.35441C21.4014 3.04524 24.2298 3.42511 26.8445 4.46087C29.4591 5.49663 31.7804 7.15677 33.6056 9.2963C35.4308 11.4358 36.7044 13.9897 37.3153 16.7348C37.9261 19.48 37.8556 22.333 37.1098 25.0446C36.3641 27.7562 34.9658 30.244 33.0371 32.2907C31.2282 29.4925 28.532 27.3827 25.3809 26.2997C26.9539 25.252 28.148 23.7259 28.7867 21.9471C29.4254 20.1682 29.4748 18.2311 28.9274 16.422C28.3801 14.613 27.2652 13.0281 25.7475 11.9016C24.2299 10.7752 22.39 10.167 20.5 10.167C18.61 10.167 16.7701 10.7752 15.2525 11.9016C13.7348 13.0281 12.6199 14.613 12.0726 16.422C11.5253 18.2311 11.5746 20.1682 12.2133 21.9471C12.852 23.7259 14.0461 25.252 15.6191 26.2997C12.468 27.3827 9.77179 29.4925 7.96289 32.2907C4.94814 29.1057 3.26974 24.8857 3.27344 20.5001ZM13.9922 18.9689C13.9922 17.6817 14.3739 16.4235 15.089 15.3533C15.804 14.2831 16.8204 13.449 18.0096 12.9564C19.1987 12.4639 20.5072 12.335 21.7696 12.5861C23.032 12.8372 24.1916 13.457 25.1017 14.3671C26.0119 15.2773 26.6317 16.4369 26.8828 17.6993C27.1339 18.9616 27.005 20.2701 26.5124 21.4593C26.0199 22.6484 25.1858 23.6648 24.1156 24.3799C23.0453 25.095 21.7871 25.4767 20.5 25.4767C18.7756 25.4716 17.1232 24.7844 15.9039 23.565C14.6845 22.3456 13.9972 20.6933 13.9922 18.9689ZM9.66641 33.8986C10.7923 32.0321 12.3813 30.4881 14.2794 29.4164C16.1775 28.3447 18.3202 27.7815 20.5 27.7815C22.6798 27.7815 24.8225 28.3447 26.7206 29.4164C28.6187 30.4881 30.2077 32.0321 31.3336 33.8986C28.2661 36.3752 24.4425 37.7261 20.5 37.7261C16.5575 37.7261 12.7339 36.3752 9.66641 33.8986Z" fill="#1D1C17" stroke="#1D1C17"/>
</svg>
